<svg xmlns="http://www.w3.org/2000/svg" width="28" height="28" viewBox="0 0 28 28" fill="none">
  <path d="M14.8751 13.1266V19.2516C14.8751 19.4836 14.7829 19.7062 14.6188 19.8703C14.4547 20.0344 14.2321 20.1266 14.0001 20.1266C13.768 20.1266 13.5454 20.0344 13.3813 19.8703C13.2172 19.7062 13.1251 19.4836 13.1251 19.2516V13.1266C13.1251 12.8945 13.2172 12.6719 13.3813 12.5078C13.5454 12.3437 13.768 12.2516 14.0001 12.2516C14.2321 12.2516 14.4547 12.3437 14.6188 12.5078C14.7829 12.6719 14.8751 12.8945 14.8751 13.1266ZM18.9044 13.0391L18.2919 19.1641C18.2798 19.2787 18.2905 19.3947 18.3234 19.5052C18.3562 19.6157 18.4106 19.7187 18.4834 19.8081C18.5562 19.8976 18.6459 19.9718 18.7474 20.0264C18.849 20.081 18.9603 20.1151 19.0751 20.1266C19.1046 20.1282 19.1341 20.1282 19.1637 20.1266C19.3804 20.1263 19.5893 20.0456 19.7499 19.9001C19.9106 19.7546 20.0115 19.5547 20.0332 19.3391L20.6457 13.2141C20.6689 12.9832 20.5994 12.7525 20.4526 12.5728C20.3057 12.3931 20.0935 12.2791 19.8626 12.2559C19.6317 12.2327 19.401 12.3022 19.2213 12.4491C19.0416 12.5959 18.9276 12.8082 18.9044 13.0391ZM9.09568 13.0391C9.07248 12.8082 8.95849 12.5959 8.77881 12.4491C8.59913 12.3022 8.36846 12.2327 8.13756 12.2559C7.90665 12.2791 7.69443 12.3931 7.54756 12.5728C7.4007 12.7525 7.33123 12.9832 7.35443 13.2141L7.96693 19.3391C7.9887 19.5556 8.09041 19.7563 8.2522 19.9019C8.414 20.0476 8.62426 20.1276 8.84193 20.1266C8.87144 20.1282 8.90102 20.1282 8.93053 20.1266C9.04486 20.1151 9.15581 20.0812 9.25704 20.0268C9.35827 19.9724 9.44781 19.8987 9.52053 19.8097C9.59325 19.7207 9.64773 19.6183 9.68087 19.5083C9.714 19.3982 9.72514 19.2828 9.71365 19.1684L9.09568 13.0391ZM26.2424 9.74249L24.5941 22.1084C24.5366 22.5281 24.3294 22.9129 24.0106 23.1918C23.6919 23.4708 23.283 23.6252 22.8594 23.6266H5.14068C4.71709 23.6252 4.30825 23.4708 3.98948 23.1918C3.67071 22.9129 3.46349 22.5281 3.406 22.1084L1.75771 9.74249C1.74119 9.61889 1.75128 9.49318 1.7873 9.37379C1.82333 9.2544 1.88445 9.1441 1.96659 9.05026C2.04872 8.95642 2.14996 8.88123 2.26352 8.82971C2.37709 8.77819 2.50035 8.75155 2.62506 8.75155H7.47803L13.3438 2.05015C13.4259 1.95704 13.5269 1.88247 13.64 1.8314C13.7532 1.78032 13.8759 1.75391 14.0001 1.75391C14.1242 1.75391 14.2469 1.78032 14.3601 1.8314C14.4732 1.88247 14.5742 1.95704 14.6563 2.05015L20.5221 8.75155H25.3751C25.4998 8.75155 25.623 8.77819 25.7366 8.82971C25.8502 8.88123 25.9514 8.95642 26.0335 9.05026C26.1157 9.1441 26.1768 9.2544 26.2128 9.37379C26.2488 9.49318 26.2589 9.61889 26.2424 9.74249ZM9.80334 8.75155H18.1968L14.0001 3.95546L9.80334 8.75155ZM24.3754 10.5016H3.62475L5.14068 21.8766H22.8594L24.3754 10.5016Z" fill="#183F91"/>
</svg>