<svg width="24" height="24" viewBox="0 0 24 24" fill="none" xmlns="http://www.w3.org/2000/svg">
<path d="M21.3112 2.689C21.1226 2.5005 20.8871 2.36569 20.629 2.29846C20.371 2.23122 20.0997 2.234 19.843 2.3065H19.829L1.83461 7.7665C1.54248 7.85069 1.28283 8.02166 1.09007 8.25676C0.897302 8.49185 0.780525 8.77997 0.75521 9.08294C0.729895 9.3859 0.797238 9.6894 0.948314 9.95323C1.09939 10.2171 1.32707 10.4287 1.60117 10.5602L9.56242 14.4377L13.4343 22.3943C13.5547 22.6513 13.7462 22.8685 13.9861 23.0201C14.226 23.1718 14.5042 23.2517 14.788 23.2502C14.8312 23.2502 14.8743 23.2484 14.9174 23.2446C15.2201 23.2201 15.5081 23.1036 15.7427 22.9107C15.9773 22.7178 16.1473 22.4578 16.2299 22.1656L21.6862 4.17119C21.6862 4.1665 21.6862 4.16181 21.6862 4.15712C21.7596 3.90115 21.7636 3.63024 21.6977 3.37223C21.6318 3.11421 21.4984 2.8784 21.3112 2.689ZM14.7965 21.7362L14.7918 21.7493V21.7427L11.0362 14.0271L15.5362 9.52712C15.6709 9.38533 15.7449 9.19651 15.7424 9.00094C15.7399 8.80537 15.6611 8.61852 15.5228 8.48022C15.3845 8.34191 15.1976 8.26311 15.002 8.26061C14.8065 8.2581 14.6177 8.3321 14.4759 8.46681L9.97586 12.9668L2.25742 9.21119H2.25086H2.26399L20.2499 3.75025L14.7965 21.7362Z" fill="#183F91"/>
</svg>
