<svg xmlns="http://www.w3.org/2000/svg" version="1.1" xmlns:xlink="http://www.w3.org/1999/xlink" width="512" height="512" x="0" y="0" viewBox="0 0 28 28" style="enable-background:new 0 0 512 512" xml:space="preserve" class=""><g><switch><g><path d="M26 23c0 .6-.4 1-1 1H12.8c-.4 1.2-1.5 2-2.8 2s-2.4-.8-2.8-2H3c-.6 0-1-.4-1-1s.4-1 1-1h4.2c.4-1.2 1.5-2 2.8-2s2.4.8 2.8 2H25c.6 0 1 .4 1 1zm-1-10h-4.2c-.4-1.2-1.5-2-2.8-2s-2.4.8-2.8 2H3c-.6 0-1 .4-1 1s.4 1 1 1h12.2c.4 1.2 1.5 2 2.8 2s2.4-.8 2.8-2H25c.6 0 1-.4 1-1s-.4-1-1-1zM3 6h4.2c.4 1.2 1.5 2 2.8 2s2.4-.8 2.8-2H25c.6 0 1-.4 1-1s-.4-1-1-1H12.8c-.4-1.2-1.5-2-2.8-2s-2.4.8-2.8 2H3c-.6 0-1 .4-1 1s.4 1 1 1z" fill="#183F91" opacity="1" data-original="#183F91" class=""></path></g></switch></g></svg>